/* XPM */
static const char * PlayPositionMarker_xpm[] = {
"9 8 2 1",
" 	c None",
".	c #00C800",
".........",
" ....... ",
" ....... ",
"  .....  ",
"  .....  ",
"   ...   ",
"   ...   ",
"    .    "};
